<svg width="36" height="36" viewBox="0 0 36 36" fill="none" xmlns="http://www.w3.org/2000/svg">
<g clip-path="url(#clip0_9_945)">
<path fill-rule="evenodd" clip-rule="evenodd" d="M31.5 28.5C31.5 28.77 31.464 29.0295 31.398 29.277L6.723 4.602C6.97646 4.53434 7.23767 4.50005 7.5 4.5H28.5C29.2956 4.5 30.0587 4.81607 30.6213 5.37868C31.1839 5.94129 31.5 6.70435 31.5 7.5V28.5ZM4.5 7.5C4.5 7.23 4.536 6.9705 4.602 6.723L13.629 15.75L4.5 24.879V7.5ZM15.75 17.871L29.277 31.398C29.0236 31.4657 28.7623 31.5 28.5 31.5H7.5C6.80273 31.5 6.12722 31.2571 5.58959 30.8131C5.05196 30.3691 4.68578 29.7517 4.554 29.067L15.75 17.871Z" fill="currentColor"/>
</g>
<defs>
<clipPath id="clip0_9_945">
<rect width="36" height="36" fill="white"/>
</clipPath>
</defs>
</svg>
