<svg width="41" height="40" viewBox="0 0 41 40" fill="none" xmlns="http://www.w3.org/2000/svg">
<circle cx="20.5" cy="20" r="20" fill="#00A859"/>
<path d="M18.5 26L14.5 22L15.91 20.59L18.5 23.17L25.09 16.58L26.5 18M20.5 12C20.7652 12 21.0196 12.1054 21.2071 12.2929C21.3946 12.4804 21.5 12.7348 21.5 13C21.5 13.2652 21.3946 13.5196 21.2071 13.7071C21.0196 13.8946 20.7652 14 20.5 14C20.2348 14 19.9804 13.8946 19.7929 13.7071C19.6054 13.5196 19.5 13.2652 19.5 13C19.5 12.7348 19.6054 12.4804 19.7929 12.2929C19.9804 12.1054 20.2348 12 20.5 12ZM27.5 12H23.32C22.9 10.84 21.8 10 20.5 10C19.2 10 18.1 10.84 17.68 12H13.5C12.9696 12 12.4609 12.2107 12.0858 12.5858C11.7107 12.9609 11.5 13.4696 11.5 14V28C11.5 28.5304 11.7107 29.0391 12.0858 29.4142C12.4609 29.7893 12.9696 30 13.5 30H27.5C28.0304 30 28.5391 29.7893 28.9142 29.4142C29.2893 29.0391 29.5 28.5304 29.5 28V14C29.5 13.4696 29.2893 12.9609 28.9142 12.5858C28.5391 12.2107 28.0304 12 27.5 12Z" fill="white"/>
</svg>
