<svg width="24" height="24" viewBox="0 0 24 24" fill="none" xmlns="http://www.w3.org/2000/svg">
<path fill-rule="evenodd" clip-rule="evenodd" d="M7.57118 4.2572C10.665 3.91427 13.7873 3.91427 16.8812 4.2572C18.5942 4.4492 19.9762 5.7982 20.1772 7.5172C20.5441 10.6548 20.5441 13.8246 20.1772 16.9622C20.0755 17.7975 19.6946 18.5739 19.0964 19.1656C18.4981 19.7574 17.7175 20.1297 16.8812 20.2222C13.7874 20.5662 10.665 20.5662 7.57118 20.2222C6.73483 20.1297 5.95425 19.7574 5.356 19.1656C4.75775 18.5739 4.37689 17.7975 4.27518 16.9622C3.90827 13.8249 3.90827 10.6555 4.27518 7.5182C4.37684 6.68307 4.75756 5.90675 5.35561 5.31505C5.95366 4.72335 6.73401 4.35095 7.57018 4.2582L7.57118 4.2572ZM12.2262 7.2472C12.4251 7.2472 12.6159 7.32622 12.7565 7.46687C12.8972 7.60752 12.9762 7.79829 12.9762 7.9972V11.4902H16.4692C16.6681 11.4902 16.8589 11.5692 16.9995 11.7099C17.1402 11.8505 17.2192 12.0413 17.2192 12.2402C17.2192 12.4391 17.1402 12.6299 16.9995 12.7705C16.8589 12.9112 16.6681 12.9902 16.4692 12.9902H12.9762V16.4832C12.9762 16.6821 12.8972 16.8729 12.7565 17.0135C12.6159 17.1542 12.4251 17.2332 12.2262 17.2332C12.0273 17.2332 11.8365 17.1542 11.6958 17.0135C11.5552 16.8729 11.4762 16.6821 11.4762 16.4832V12.9902H7.98318C7.78427 12.9902 7.5935 12.9112 7.45285 12.7705C7.3122 12.6299 7.23318 12.4391 7.23318 12.2402C7.23318 12.0413 7.3122 11.8505 7.45285 11.7099C7.5935 11.5692 7.78427 11.4902 7.98318 11.4902H11.4762V7.9972C11.4762 7.79829 11.5552 7.60752 11.6958 7.46687C11.8365 7.32622 12.0273 7.2472 12.2262 7.2472Z" fill="white"/>
</svg>
