<svg width="26" height="25" viewBox="0 0 26 25" fill="none" xmlns="http://www.w3.org/2000/svg">
<rect width="25.2329" height="25" rx="7" transform="matrix(1 1.32324e-05 1.33556e-05 1 0 0)" fill="url(#paint0_linear_36_2101)"/>
<g clip-path="url(#clip0_36_2101)">
<path d="M20.0547 17.1913L15.6804 12.8573L20.0546 8.52346C20.1384 8.4394 20.1854 8.326 20.1854 8.20784C20.1854 8.08968 20.1384 7.97627 20.0546 7.89221L17.9882 5.84486C17.9464 5.80332 17.8967 5.77035 17.8421 5.74786C17.7874 5.72536 17.7288 5.71378 17.6696 5.71378C17.6104 5.71378 17.5518 5.72536 17.4971 5.74785C17.4425 5.77034 17.3928 5.80331 17.351 5.84486L12.9768 10.1787L8.60243 5.84474C8.51793 5.76105 8.40334 5.71403 8.28386 5.71403C8.16438 5.71403 8.0498 5.76104 7.9653 5.84473L5.89893 7.89203C5.857 7.93342 5.82373 7.98261 5.80102 8.03677C5.77832 8.09093 5.76663 8.149 5.76663 8.20765C5.76664 8.2663 5.77832 8.32437 5.80103 8.37853C5.82373 8.43269 5.857 8.48188 5.89894 8.52328L10.2733 12.8573L5.89906 17.1911C5.81458 17.2748 5.76713 17.3884 5.76713 17.5068C5.76714 17.6251 5.81459 17.7387 5.89906 17.8224L7.96549 19.8697C8.00727 19.9113 8.05691 19.9442 8.11158 19.9667C8.16625 19.9892 8.22486 20.0008 8.28405 20.0008C8.34325 20.0008 8.40186 19.9892 8.45653 19.9667C8.51119 19.9443 8.56084 19.9113 8.60262 19.8697L12.9769 15.5359L17.3512 19.8699C17.4357 19.9535 17.5503 20.0006 17.6698 20.0006C17.7893 20.0006 17.9039 19.9536 17.9884 19.8699L20.0547 17.8226C20.0967 17.7812 20.1299 17.732 20.1526 17.6778C20.1753 17.6237 20.187 17.5656 20.187 17.5069C20.187 17.4483 20.1753 17.3902 20.1526 17.3361C20.1299 17.2819 20.0967 17.2327 20.0547 17.1913Z" fill="white"/>
</g>
<defs>
<linearGradient id="paint0_linear_36_2101" x1="-1.05537" y1="-5.11363" x2="39.4248" y2="-3.19553" gradientUnits="userSpaceOnUse">
<stop stop-color="#FA255E"/>
<stop offset="1" stop-color="#6E2F69"/>
</linearGradient>
<clipPath id="clip0_36_2101">
<rect width="14.4188" height="14.2857" rx="7" transform="matrix(1 1.32324e-05 1.33556e-05 1 5.76758 5.71436)" fill="white"/>
</clipPath>
</defs>
</svg>
