<svg width="24" height="24" viewBox="0 0 24 24" fill="none" xmlns="http://www.w3.org/2000/svg">
<path d="M14 18H21M3 18H5M5 18C5 18.663 5.26339 19.2989 5.73223 19.7678C6.20107 20.2366 6.83696 20.5 7.5 20.5C8.16304 20.5 8.79893 20.2366 9.26777 19.7678C9.73661 19.2989 10 18.663 10 18C10 17.337 9.73661 16.7011 9.26777 16.2322C8.79893 15.7634 8.16304 15.5 7.5 15.5C6.83696 15.5 6.20107 15.7634 5.73223 16.2322C5.26339 16.7011 5 17.337 5 18ZM20 12H21M3 12H10M13 6H21M13 6C13 5.33696 12.7366 4.70107 12.2678 4.23223C11.7989 3.76339 11.163 3.5 10.5 3.5C9.83696 3.5 9.20107 3.76339 8.73223 4.23223C8.26339 4.70107 8 5.33696 8 6C8 6.66304 8.26339 7.29893 8.73223 7.76777C9.20107 8.23661 9.83696 8.5 10.5 8.5C11.163 8.5 11.7989 8.23661 12.2678 7.76777C12.7366 7.29893 13 6.66304 13 6ZM3 6H4M16.5 14.5C15.837 14.5 15.2011 14.2366 14.7322 13.7678C14.2634 13.2989 14 12.663 14 12C14 11.337 14.2634 10.7011 14.7322 10.2322C15.2011 9.76339 15.837 9.5 16.5 9.5C17.163 9.5 17.7989 9.76339 18.2678 10.2322C18.7366 10.7011 19 11.337 19 12C19 12.663 18.7366 13.2989 18.2678 13.7678C17.7989 14.2366 17.163 14.5 16.5 14.5Z" stroke="#666A6D" stroke-width="2" stroke-linecap="round" stroke-linejoin="round"/>
</svg>
