<svg width="41" height="40" viewBox="0 0 41 40" fill="none" xmlns="http://www.w3.org/2000/svg">
<circle cx="20.5" cy="20" r="20" fill="#32BAAA"/>
<path d="M14.5 11C14 11 13.6 11.2 13.3 11.6L12 13.2C11.7 13.6 11.5 14 11.5 14.5V27C11.5 28.1 12.4 29 13.5 29H21.8C21.6 28.4 21.5 27.7 21.5 27C21.5 23.7 24.2 21 27.5 21C28.2 21 28.9 21.1 29.5 21.3V14.5C29.5 14 29.3 13.6 29 13.2L27.6 11.5C27.4 11.2 27 11 26.5 11H14.5ZM14.4 12H26.4L27.3 13H13.6L14.4 12ZM14.5 23H20.5V26H14.5V23ZM29.8 23.8L26.2 27.4L24.6 25.8L23.5 27L26.3 30L31.1 25.2L29.8 23.8Z" fill="white"/>
</svg>
