<svg width="36" height="36" viewBox="0 0 36 36" fill="none" xmlns="http://www.w3.org/2000/svg">
<path fill-rule="evenodd" clip-rule="evenodd" d="M12.189 6H9C8.60218 6 8.22064 6.15804 7.93934 6.43934C7.65804 6.72064 7.5 7.10218 7.5 7.5C7.5 7.89782 7.65804 8.27936 7.93934 8.56066C8.22064 8.84196 8.60218 9 9 9H12.189C11.9354 8.01608 11.9354 6.98392 12.189 6ZM12.669 10.254C8.5875 12.471 7.5 17.0325 7.5 19.5V27C7.5 28.1935 7.97411 29.3381 8.81802 30.182C9.66193 31.0259 10.8065 31.5 12 31.5H12.042C12.0138 31.2791 11.9998 31.0567 12 30.834V22.5C12 20.9087 12.6321 19.3826 13.7574 18.2574C14.8826 17.1321 16.4087 16.5 18 16.5C19.5913 16.5 21.1174 17.1321 22.2426 18.2574C23.3679 19.3826 24 20.9087 24 22.5V30.834C24 31.059 23.985 31.2825 23.958 31.5H24C25.1935 31.5 26.3381 31.0259 27.182 30.182C28.0259 29.3381 28.5 28.1935 28.5 27V19.5C28.5 17.0325 27.411 12.471 23.3325 10.254C22.8276 11.233 22.0629 12.054 21.1223 12.6272C20.1817 13.2004 19.1015 13.5036 18 13.5036C16.8985 13.5036 15.8183 13.2004 14.8777 12.6272C13.9371 12.054 13.1724 11.233 12.6675 10.254H12.669ZM23.8095 9H27C27.3978 9 27.7794 8.84196 28.0607 8.56066C28.342 8.27936 28.5 7.89782 28.5 7.5C28.5 7.10218 28.342 6.72064 28.0607 6.43934C27.7794 6.15804 27.3978 6 27 6H23.811C24.0644 6.98395 24.0629 8.01605 23.8095 9ZM18 19.5C17.2044 19.5 16.4413 19.8161 15.8787 20.3787C15.3161 20.9413 15 21.7044 15 22.5V30.834C15 32.0295 15.9705 33 17.166 33H18.834C20.0295 33 21 32.0295 21 30.834V22.5C21 21.7044 20.6839 20.9413 20.1213 20.3787C19.5587 19.8161 18.7956 19.5 18 19.5ZM15 7.5C15 6.70435 15.3161 5.94129 15.8787 5.37868C16.4413 4.81607 17.2044 4.5 18 4.5C18.7956 4.5 19.5587 4.81607 20.1213 5.37868C20.6839 5.94129 21 6.70435 21 7.5C21 8.29565 20.6839 9.05871 20.1213 9.62132C19.5587 10.1839 18.7956 10.5 18 10.5C17.2044 10.5 16.4413 10.1839 15.8787 9.62132C15.3161 9.05871 15 8.29565 15 7.5Z" fill="currentColor"/>
</svg>
