<svg width="50" height="50" viewBox="0 0 50 50" fill="none" xmlns="http://www.w3.org/2000/svg">
<path d="M35.4166 39.5833H39.5833V22.9167H27.0833V39.5833H31.25V27.0833H35.4166V39.5833ZM6.24996 39.5833V8.33333C6.24996 7.7808 6.46945 7.25089 6.86015 6.86019C7.25085 6.46949 7.78076 6.25 8.33329 6.25H37.5C38.0525 6.25 38.5824 6.46949 38.9731 6.86019C39.3638 7.25089 39.5833 7.7808 39.5833 8.33333V18.75H43.75V39.5833H45.8333V43.75H4.16663V39.5833H6.24996ZM14.5833 22.9167V27.0833H18.75V22.9167H14.5833ZM14.5833 31.25V35.4167H18.75V31.25H14.5833ZM14.5833 14.5833V18.75H18.75V14.5833H14.5833Z" fill="url(#paint0_linear_14_1158)"/>
<defs>
<linearGradient id="paint0_linear_14_1158" x1="-2.12268" y1="10.9375" x2="62.9848" y2="21.4512" gradientUnits="userSpaceOnUse">
<stop stop-color="#FA255E"/>
<stop offset="1" stop-color="#7A2171"/>
</linearGradient>
</defs>
</svg>
