<svg width="41" height="40" viewBox="0 0 41 40" fill="none" xmlns="http://www.w3.org/2000/svg">
<circle cx="20.5" cy="20" r="20" fill="#FF6B00"/>
<path d="M27.5 15C27.5 13.9 26.6 13 25.5 13H23.5C22.95 13 22.5 13.45 22.5 14C22.5 14.55 22.95 15 23.5 15H25.5V17.65L22.02 22H18.5V18C18.5 17.45 18.05 17 17.5 17H14.5C12.29 17 10.5 18.79 10.5 21V23C10.5 23.55 10.95 24 11.5 24H12.5C12.5 25.66 13.84 27 15.5 27C17.16 27 18.5 25.66 18.5 24H22.02C22.63 24 23.2 23.72 23.58 23.25L27.06 18.9C27.35 18.54 27.5 18.1 27.5 17.65V15ZM15.5 25C14.95 25 14.5 24.55 14.5 24H16.5C16.5 24.55 16.05 25 15.5 25Z" fill="white"/>
<path d="M14.5 14H17.5C18.05 14 18.5 14.45 18.5 15C18.5 15.55 18.05 16 17.5 16H14.5C13.95 16 13.5 15.55 13.5 15C13.5 14.45 13.95 14 14.5 14ZM27.5 21C25.84 21 24.5 22.34 24.5 24C24.5 25.66 25.84 27 27.5 27C29.16 27 30.5 25.66 30.5 24C30.5 22.34 29.16 21 27.5 21ZM27.5 25C26.95 25 26.5 24.55 26.5 24C26.5 23.45 26.95 23 27.5 23C28.05 23 28.5 23.45 28.5 24C28.5 24.55 28.05 25 27.5 25Z" fill="white"/>
</svg>
