<svg width="32" height="30" viewBox="0 0 32 30" fill="none" xmlns="http://www.w3.org/2000/svg">
<path fill-rule="evenodd" clip-rule="evenodd" d="M21.7508 15.0001C21.7508 14.7017 21.6323 14.4155 21.4213 14.2046C21.2104 13.9936 20.9242 13.8751 20.6258 13.8751H4.16634L7.10784 11.3551C7.22012 11.2589 7.31236 11.1416 7.37931 11.0098C7.44626 10.8781 7.48659 10.7344 7.49801 10.587C7.50944 10.4397 7.49172 10.2915 7.44588 10.151C7.40004 10.0105 7.32696 9.88034 7.23084 9.76806C7.13471 9.65578 7.01741 9.56353 6.88563 9.49658C6.75385 9.42964 6.61018 9.3893 6.46281 9.37788C6.31544 9.36646 6.16727 9.38417 6.02675 9.43001C5.88623 9.47586 5.75612 9.54893 5.64384 9.64506L0.393836 14.1451C0.270335 14.2507 0.171179 14.3818 0.103192 14.5294C0.0352046 14.677 0 14.8376 0 15.0001C0 15.1626 0.0352046 15.3231 0.103192 15.4707C0.171179 15.6183 0.270335 15.7494 0.393836 15.8551L5.64384 20.3551C5.8706 20.5492 6.16519 20.6453 6.46281 20.6222C6.76043 20.5992 7.0367 20.4588 7.23084 20.2321C7.42497 20.0053 7.52108 19.7107 7.49801 19.4131C7.47495 19.1155 7.3346 18.8392 7.10784 18.6451L4.16784 16.1251H20.6258C20.9242 16.1251 21.2104 16.0065 21.4213 15.7955C21.6323 15.5846 21.7508 15.2984 21.7508 15.0001Z" fill="currentColor"/>
<path d="M11.6259 9C11.6259 10.053 11.6259 10.5795 11.8794 10.959C11.9885 11.1222 12.1287 11.2623 12.2919 11.3715C12.6714 11.625 13.1979 11.625 14.2509 11.625H20.6259C21.521 11.625 22.3794 11.9806 23.0123 12.6135C23.6453 13.2465 24.0009 14.1049 24.0009 15C24.0009 15.8951 23.6453 16.7535 23.0123 17.3865C22.3794 18.0194 21.521 18.375 20.6259 18.375H14.2509C13.1979 18.375 12.6714 18.375 12.2919 18.627C12.1285 18.7366 11.9884 18.8773 11.8794 19.041C11.6259 19.4205 11.6259 19.947 11.6259 21C11.6259 25.242 11.6259 27.3645 12.9444 28.6815C14.2614 30 16.3824 30 20.6244 30H22.1244C26.3694 30 28.4889 30 29.8074 28.6815C31.1259 27.3645 31.1259 25.242 31.1259 21V9C31.1259 4.758 31.1259 2.6355 29.8074 1.3185C28.4889 -8.9407e-08 26.3679 0 22.1259 0H20.6259C16.3824 0 14.2614 -8.9407e-08 12.9444 1.3185C11.6259 2.6355 11.6259 4.758 11.6259 9Z" fill="currentColor"/>
</svg>
