<svg width="44" height="44" viewBox="0 0 44 44" fill="none" xmlns="http://www.w3.org/2000/svg">
<g clip-path="url(#clip0_11_9028)">
<path fill-rule="evenodd" clip-rule="evenodd" d="M38.5 34.8333C38.5 35.1633 38.456 35.4805 38.3753 35.783L8.217 5.62467C8.52678 5.54197 8.84604 5.50006 9.16667 5.5H34.8333C35.8058 5.5 36.7384 5.88631 37.4261 6.57394C38.1137 7.26158 38.5 8.19421 38.5 9.16667V34.8333ZM5.5 9.16667C5.5 8.83667 5.544 8.5195 5.62467 8.217L16.6577 19.25L5.5 30.4077V9.16667ZM19.25 21.8423L35.783 38.3753C35.4732 38.4581 35.154 38.5 34.8333 38.5H9.16667C8.31444 38.5 7.48883 38.2032 6.83172 37.6605C6.17462 37.1178 5.72707 36.3632 5.566 35.5263L19.25 21.8423Z" fill="#40444A"/>
</g>
<defs>
<clipPath id="clip0_11_9028">
<rect width="44" height="44" fill="white"/>
</clipPath>
</defs>
</svg>
