<svg width="25" height="24" viewBox="0 0 25 24" fill="none" xmlns="http://www.w3.org/2000/svg">
<g clip-path="url(#clip0_9_1307)">
<path fill-rule="evenodd" clip-rule="evenodd" d="M12.5 2C13.401 2.00008 14.2757 2.30421 14.9823 2.86317C15.689 3.42213 16.1864 4.20321 16.394 5.08C17.5461 5.28976 18.588 5.89708 19.3383 6.79613C20.0886 7.69519 20.4997 8.82899 20.5 10V19C20.5 19.7956 20.1839 20.5587 19.6213 21.1213C19.0587 21.6839 18.2956 22 17.5 22H7.5C6.70435 22 5.94129 21.6839 5.37868 21.1213C4.81607 20.5587 4.5 19.7956 4.5 19V10C4.49987 8.82889 4.91082 7.69488 5.6612 6.79574C6.41157 5.89661 7.45376 5.2894 8.606 5.08C8.81358 4.20321 9.31097 3.42213 10.0177 2.86317C10.7243 2.30421 11.599 2.00008 12.5 2ZM15.5 18H9.5V20H15.5V18ZM14.5 14H10.5C10.2551 14 10.0187 14.09 9.83563 14.2527C9.65259 14.4155 9.53566 14.6397 9.507 14.883L9.5 15V16H15.5V15C15.5 14.7551 15.41 14.5187 15.2473 14.3356C15.0845 14.1526 14.8603 14.0357 14.617 14.007L14.5 14ZM13.5 9H11.5C11.2348 9 10.9804 9.10536 10.7929 9.29289C10.6054 9.48043 10.5 9.73478 10.5 10C10.5 10.2652 10.6054 10.5196 10.7929 10.7071C10.9804 10.8946 11.2348 11 11.5 11H13.5C13.7652 11 14.0196 10.8946 14.2071 10.7071C14.3946 10.5196 14.5 10.2652 14.5 10C14.5 9.73478 14.3946 9.48043 14.2071 9.29289C14.0196 9.10536 13.7652 9 13.5 9ZM12.5 4C12.1489 4.00001 11.8041 4.09243 11.5 4.26796C11.196 4.4435 10.9435 4.69597 10.768 5H14.232C14.0565 4.69597 13.804 4.4435 13.5 4.26796C13.1959 4.09243 12.8511 4.00001 12.5 4Z" fill="white"/>
</g>
<defs>
<clipPath id="clip0_9_1307">
<rect width="24" height="24" fill="white" transform="translate(0.5)"/>
</clipPath>
</defs>
</svg>
