<svg width="36" height="36" viewBox="0 0 36 36" fill="none" xmlns="http://www.w3.org/2000/svg">
<g clip-path="url(#clip0_9_936)">
<path fill-rule="evenodd" clip-rule="evenodd" d="M34.938 6.68932C35.2512 6.81433 35.5198 7.03034 35.7091 7.30947C35.8984 7.5886 35.9997 7.91805 36 8.25532V27.7448C35.9997 28.0821 35.8984 28.4115 35.7091 28.6907C35.5198 28.9698 35.2512 29.1858 34.938 29.3108L18.6255 35.8358C18.2232 35.9967 17.7745 35.9967 17.3722 35.8358L1.05975 29.3108C0.74693 29.1855 0.478812 28.9693 0.289936 28.6902C0.10106 28.4111 7.84348e-05 28.0818 0 27.7448L0 8.25532C7.84348e-05 7.91831 0.10106 7.58905 0.289936 7.30995C0.478812 7.03084 0.74693 6.81469 1.05975 6.68932L16.7467 0.41407L16.7558 0.41182L17.3722 0.16432C17.7752 0.0028438 18.2248 0.0028438 18.6278 0.16432L19.2443 0.41182L19.2533 0.41407L34.938 6.68932ZM31.8465 7.87507L18 13.4146L4.1535 7.87507L2.25 8.63782V9.53782L16.875 15.3878V33.2123L18 33.6623L19.125 33.2123V15.3901L33.75 9.54007V8.64007L31.8465 7.87507Z" fill="currentColor"/>
</g>
<defs>
<clipPath id="clip0_9_936">
<rect width="36" height="36" fill="white"/>
</clipPath>
</defs>
</svg>
