<svg width="44" height="44" viewBox="0 0 44 44" fill="none" xmlns="http://www.w3.org/2000/svg">
<path d="M44 22C44 34.1503 34.1503 44 22 44C9.84974 44 0 34.1503 0 22C0 9.84974 9.84974 0 22 0C34.1503 0 44 9.84974 44 22Z" fill="#40444A"/>
<path d="M33 28.8052C32.9833 28.7894 32.9667 28.7733 32.9499 28.7576C31.1109 27.0353 28.7074 25.9087 26.0468 25.6851C25.574 26.2868 25.167 26.9425 24.8359 27.6412C23.8216 27.2141 22.861 26.6847 21.967 26.0658C20.3923 24.9756 19.0244 23.6077 17.9342 22.033C17.3153 21.139 16.7858 20.1784 16.3588 19.1641C17.0576 18.833 17.7132 18.4259 18.3149 17.9532C18.0914 15.2926 16.9647 12.8891 15.2424 11.0501C15.2267 11.0333 15.2106 11.0167 15.1948 11C13.6123 11.7047 12.1907 12.705 11 13.931C11.4944 16.0949 12.2653 18.1536 13.2737 20.0678C14.2058 21.8372 15.3407 23.4831 16.6478 24.9747C17.3871 25.8185 18.1815 26.6129 19.0253 27.3522C20.5168 28.6591 22.1627 29.7942 23.9322 30.7263C25.8464 31.7347 27.905 32.5056 30.069 33C31.295 31.8093 32.2954 30.3877 33 28.8052Z" fill="white"/>
</svg>
