<svg width="25" height="24" viewBox="0 0 25 24" fill="none" xmlns="http://www.w3.org/2000/svg">
<path d="M20.5 6H4.5V4H20.5V6ZM13.5 15.5C13.5 16.64 13.93 17.86 14.5 19V20H4.5V14H3.5V12L4.5 7H20.5L21.2 10.5C20.5 10.18 19.78 10 19 10C16 10 13.5 12.5 13.5 15.5ZM12.5 14H6.5V18H12.5V14ZM22.5 15.5C22.5 18.1 19 22 19 22C19 22 15.5 18.1 15.5 15.5C15.5 13.6 17.1 12 19 12C20.9 12 22.5 13.6 22.5 15.5ZM20.2 15.6C20.2 15 19.6 14.4 19 14.4C18.4 14.4 17.8 14.9 17.8 15.6C17.8 16.2 18.3 16.8 19 16.8C19.7 16.8 20.3 16.2 20.2 15.6Z" fill="white"/>
</svg>
