<svg width="41" height="40" viewBox="0 0 41 40" fill="none" xmlns="http://www.w3.org/2000/svg">
<circle cx="20.5" cy="20" r="20" fill="#0066CC"/>
<path d="M28.5 14H12.5V12H28.5V14ZM21.5 23.5C21.5 24.64 21.93 25.86 22.5 27V28H12.5V22H11.5V20L12.5 15H28.5L29.2 18.5C28.5 18.18 27.78 18 27 18C24 18 21.5 20.5 21.5 23.5ZM20.5 22H14.5V26H20.5V22ZM30.5 23.5C30.5 26.1 27 30 27 30C27 30 23.5 26.1 23.5 23.5C23.5 21.6 25.1 20 27 20C28.9 20 30.5 21.6 30.5 23.5ZM28.2 23.6C28.2 23 27.6 22.4 27 22.4C26.4 22.4 25.8 22.9 25.8 23.6C25.8 24.2 26.3 24.8 27 24.8C27.7 24.8 28.3 24.2 28.2 23.6Z" fill="white"/>
</svg>
