<svg width="36" height="36" viewBox="0 0 36 36" fill="none" xmlns="http://www.w3.org/2000/svg">
<g clip-path="url(#clip0_9_952)">
<path d="M21.9705 6.12139C22.0108 6.28748 22.0896 6.44174 22.2007 6.57161C22.3118 6.70147 22.452 6.80329 22.6099 6.86877C22.7677 6.93426 22.9388 6.96156 23.1092 6.94846C23.2796 6.93536 23.4445 6.88223 23.5905 6.79339C27.249 4.56589 31.4355 8.75089 29.208 12.4094C29.1192 12.5553 29.066 12.7201 29.0528 12.8904C29.0396 13.0607 29.0668 13.2317 29.1321 13.3896C29.1974 13.5474 29.2991 13.6876 29.4288 13.7988C29.5585 13.9099 29.7125 13.989 29.8785 14.0294C34.041 15.0389 34.041 20.9594 29.8785 21.9704C29.7124 22.0106 29.5582 22.0895 29.4283 22.2006C29.2984 22.3117 29.1966 22.4519 29.1311 22.6097C29.0656 22.7676 29.0383 22.9387 29.0514 23.1091C29.0645 23.2795 29.1177 23.4444 29.2065 23.5904C31.434 27.2489 27.249 31.4354 23.5905 29.2079C23.4446 29.119 23.2798 29.0659 23.1095 29.0527C22.9392 29.0395 22.7682 29.0667 22.6103 29.132C22.4525 29.1973 22.3123 29.2989 22.2011 29.4286C22.09 29.5583 22.0109 29.7124 21.9705 29.8784C20.961 34.0409 15.0405 34.0409 14.0295 29.8784C13.9893 29.7123 13.9104 29.558 13.7993 29.4282C13.6882 29.2983 13.548 29.1965 13.3902 29.131C13.2323 29.0655 13.0612 29.0382 12.8908 29.0513C12.7204 29.0644 12.5555 29.1175 12.4095 29.2064C8.75101 31.4339 4.56451 27.2489 6.79201 23.5904C6.88086 23.4445 6.93404 23.2797 6.94723 23.1094C6.96042 22.9391 6.93324 22.768 6.86792 22.6102C6.80259 22.4524 6.70095 22.3122 6.57126 22.201C6.44157 22.0898 6.28748 22.0108 6.12151 21.9704C1.95901 20.9609 1.95901 15.0404 6.12151 14.0294C6.28761 13.9891 6.44186 13.9103 6.57173 13.7992C6.7016 13.6881 6.80341 13.5479 6.86889 13.39C6.93438 13.2322 6.96168 13.0611 6.94858 12.8907C6.93548 12.7203 6.88235 12.5554 6.79351 12.4094C4.56601 8.75089 8.75101 4.56439 12.4095 6.79189C12.5553 6.88141 12.7201 6.93513 12.8906 6.94866C13.0612 6.96219 13.2324 6.93514 13.3905 6.86973C13.5485 6.80432 13.6888 6.7024 13.7999 6.57233C13.911 6.44226 13.9897 6.28772 14.0295 6.12139C15.039 1.95889 20.9595 1.95889 21.9705 6.12139ZM18 13.4999C16.8065 13.4999 15.6619 13.974 14.818 14.8179C13.9741 15.6618 13.5 16.8064 13.5 17.9999C13.5 19.1934 13.9741 20.338 14.818 21.1819C15.6619 22.0258 16.8065 22.4999 18 22.4999C19.1935 22.4999 20.3381 22.0258 21.182 21.1819C22.0259 20.338 22.5 19.1934 22.5 17.9999C22.5 16.8064 22.0259 15.6618 21.182 14.8179C20.3381 13.974 19.1935 13.4999 18 13.4999Z" fill="currentColor"/>
</g>
<defs>
<clipPath id="clip0_9_952">
<rect width="36" height="36" fill="white"/>
</clipPath>
</defs>
</svg>
