<svg width="13" height="13" viewBox="0 0 13 13" fill="none" xmlns="http://www.w3.org/2000/svg">
<path fill-rule="evenodd" clip-rule="evenodd" d="M3.03061 7.82194L0.453638 5.68869C-0.0327438 5.29972 0.180582 4.51753 0.797803 4.42935L4.45278 4.26651L6.01361 0.35341C6.12241 0.136528 6.34355 0 6.58603 0C6.82851 0 7.04966 0.13724 7.15846 0.35341L8.71929 4.26651L12.3743 4.42935C12.9915 4.51753 13.2048 5.29972 12.7184 5.68869L10.1415 7.82194L10.8447 11.9868C10.9258 12.5549 10.3356 12.9802 9.82289 12.7235L6.58603 10.6663L3.34918 12.7227C2.83577 12.9795 2.24628 12.5542 2.32735 11.9861L3.03061 7.82194Z" fill="#FFBD0C"/>
</svg>
