<svg width="40" height="40" viewBox="0 0 40 40" fill="none" xmlns="http://www.w3.org/2000/svg">
<circle cx="20" cy="20" r="20" fill="#FFA500"/>
<path d="M31.5417 19.9285C31.4911 19.3667 31.2195 18.8481 30.7866 18.4866C30.3536 18.1252 29.7948 17.9505 29.2331 18.0011C28.6713 18.0516 28.1527 18.3233 27.7912 18.7562C27.4298 19.1892 27.2551 19.748 27.3057 20.3097C27.4729 22.2114 26.9694 24.1116 25.8824 25.681C24.7095 27.3465 22.988 28.5461 21.0194 29.0698C18.9311 29.6227 16.7141 29.4124 14.767 28.4768C12.7064 27.4869 11.062 25.8004 10.1244 23.7155C10.7792 26.0387 12.2347 28.0554 14.2333 29.4087C16.3405 30.8033 18.8747 31.4038 21.3837 31.1031C24.0203 30.8234 26.474 29.6235 28.3138 27.7143C30.2248 25.6976 31.3672 23.074 31.5417 20.3012V20.2335C31.5497 20.1319 31.5497 20.03 31.5417 19.9285ZM12.2424 19.8692C12.0751 17.9675 12.5787 16.0672 13.6657 14.4979C14.8385 12.8324 16.5601 11.6327 18.5286 11.1091C20.6169 10.5562 22.8339 10.7664 24.781 11.7021C26.8417 12.692 28.4861 14.3784 29.4237 16.4634C28.7689 14.1402 27.3134 12.1235 25.3147 10.7702C23.2075 9.37556 20.6733 8.77504 18.1643 9.07576C15.5277 9.35549 13.074 10.5554 11.2342 12.4646C9.32324 14.4813 8.18087 17.1048 8.00634 19.8776V19.9454C7.99789 20.0497 7.99789 20.1546 8.00634 20.2589C8.0569 20.8206 8.32853 21.3392 8.76148 21.7007C9.19443 22.0622 9.75324 22.2368 10.315 22.1863C10.8767 22.1357 11.3953 21.8641 11.7568 21.4311C12.1183 20.9982 12.2929 20.4394 12.2424 19.8776V19.8692Z" fill="white"/>
</svg>
