<svg width="19" height="20" viewBox="0 0 19 20" fill="none" xmlns="http://www.w3.org/2000/svg">
<path d="M7.5 16L3.5 12L4.91 10.59L7.5 13.17L14.09 6.58L15.5 8M9.5 2C9.76522 2 10.0196 2.10536 10.2071 2.29289C10.3946 2.48043 10.5 2.73478 10.5 3C10.5 3.26522 10.3946 3.51957 10.2071 3.70711C10.0196 3.89464 9.76522 4 9.5 4C9.23478 4 8.98043 3.89464 8.79289 3.70711C8.60536 3.51957 8.5 3.26522 8.5 3C8.5 2.73478 8.60536 2.48043 8.79289 2.29289C8.98043 2.10536 9.23478 2 9.5 2ZM16.5 2H12.32C11.9 0.84 10.8 0 9.5 0C8.2 0 7.1 0.84 6.68 2H2.5C1.96957 2 1.46086 2.21071 1.08579 2.58579C0.710714 2.96086 0.5 3.46957 0.5 4V18C0.5 18.5304 0.710714 19.0391 1.08579 19.4142C1.46086 19.7893 1.96957 20 2.5 20H16.5C17.0304 20 17.5391 19.7893 17.9142 19.4142C18.2893 19.0391 18.5 18.5304 18.5 18V4C18.5 3.46957 18.2893 2.96086 17.9142 2.58579C17.5391 2.21071 17.0304 2 16.5 2Z" fill="white"/>
</svg>
